<?xml version="1.0" encoding="utf-8"?>
<!-- Generator: Adobe Illustrator 17.0.0, SVG Export Plug-In . SVG Version: 6.00 Build 0)  -->
<!DOCTYPE svg PUBLIC "-//W3C//DTD SVG 1.1//EN" "http://www.w3.org/Graphics/SVG/1.1/DTD/svg11.dtd">
<svg version="1.1" id="Layer_1" xmlns="http://www.w3.org/2000/svg" xmlns:xlink="http://www.w3.org/1999/xlink" x="0px" y="0px"
	 width="30px" height="30px" viewBox="0 0 30 30" enable-background="new 0 0 30 30" xml:space="preserve"  fill="#F3A272">
<g>
	<path d="M122.865,0c0.801,0,1.602,0,2.403,0c0.124,0.038,0.245,0.097,0.371,0.11c7.481,0.763,13.335,7.213,13.377,14.741
		c0.036,6.587-4.062,12.332-10.333,14.4c-1.104,0.364-2.275,0.526-3.415,0.781c-0.845,0-1.691,0-2.536,0
		c-0.148-0.039-0.293-0.098-0.444-0.113c-5.861-0.605-10.953-4.826-12.633-10.534c-0.31-1.053-0.452-2.155-0.671-3.234
		c0-0.845,0-1.691,0-2.536c0.038-0.126,0.092-0.249,0.111-0.378c0.962-6.324,4.497-10.507,10.532-12.556
		C120.665,0.329,121.784,0.221,122.865,0z M123.983,23.23c1.267,0,2.535,0.03,3.801-0.006c2.432-0.07,4.493-2.116,4.534-4.542
		c0.041-2.422,0.046-4.846-0.002-7.268c-0.05-2.532-2.063-4.558-4.6-4.611c-2.533-0.052-5.069-0.054-7.601,0.011
		c-2.359,0.061-4.394,2.148-4.432,4.496c-0.039,2.445-0.042,4.891,0.002,7.335c0.045,2.483,2.09,4.514,4.563,4.58
		C121.493,23.259,122.738,23.231,123.983,23.23z"/>
	<path d="M117.085,15.006c0-1-0.012-2,0.002-3c0.03-2.11,1.758-3.846,3.87-3.867c2.022-0.02,4.045-0.018,6.067-0.001
		c2.067,0.018,3.802,1.644,3.87,3.721c0.069,2.109,0.063,4.222,0.012,6.332c-0.048,1.945-1.395,3.568-3.342,3.702
		c-2.405,0.165-4.84,0.15-7.245-0.017c-1.835-0.128-3.171-1.817-3.226-3.67c-0.031-1.066-0.006-2.133-0.006-3.2
		C117.087,15.006,117.086,15.006,117.085,15.006z M128.604,15.268c0-2.633-2.073-4.725-4.671-4.712
		c-2.526,0.012-4.654,2.125-4.651,4.618c0.004,2.611,2.098,4.713,4.691,4.707C126.517,19.875,128.604,17.796,128.604,15.268z
		 M129.329,10.863c0.004-0.101,0.008-0.201,0.013-0.302c-0.287-0.219-0.55-0.566-0.866-0.625c-0.432-0.081-0.762,0.241-0.781,0.713
		c-0.019,0.474,0.29,0.816,0.726,0.77C128.739,11.384,129.027,11.058,129.329,10.863z"/>
	<path d="M127.013,15.242c-0.002,1.659-1.392,3.043-3.055,3.043c-1.689,0-3.068-1.392-3.073-3.104
		c-0.005-1.644,1.395-3.032,3.065-3.039C125.648,12.135,127.015,13.52,127.013,15.242z"/>
</g>
<g>
	<path d="M0.062,16.128c0-0.901,0-1.802,0-2.704c0.038-0.102,0.098-0.201,0.111-0.306c1.042-8.333,8.594-14.13,16.9-12.97
		C25.241,1.288,30.96,8.88,29.785,17.025c-1.041,7.217-7.134,12.61-14.441,12.782c-6.478,0.152-12.252-3.783-14.393-9.889
		C0.524,18.7,0.352,17.393,0.062,16.128z M19.438,11.375c0.072,0.094,0.145,0.188,0.217,0.282c-0.206,0.127-0.436,0.227-0.614,0.386
		c-2.031,1.818-4.055,3.642-6.075,5.472c-0.177,0.16-0.423,0.357-0.444,0.557c-0.127,1.204-0.198,2.414-0.288,3.622
		c0.062,0.053,0.125,0.105,0.187,0.158c0.797-0.72,1.594-1.44,2.41-2.176c1.199,0.881,2.368,1.757,3.555,2.606
		c0.779,0.558,1.319,0.36,1.521-0.574c0.825-3.821,1.643-7.643,2.432-11.471c0.223-1.082-0.311-1.496-1.335-1.102
		c-1.949,0.749-3.895,1.507-5.844,2.258c-2.745,1.058-5.496,2.103-8.232,3.184c-0.3,0.118-0.52,0.439-0.776,0.665
		c0.267,0.203,0.506,0.484,0.807,0.593c0.928,0.337,1.887,0.585,2.818,0.915c0.442,0.157,0.778,0.119,1.18-0.139
		c2.557-1.637,5.132-3.247,7.705-4.859C18.904,11.6,19.179,11.499,19.438,11.375z"/>
</g>
<g>
	<path d="M34.667,15.147c0-0.186,0-0.372,0-0.558c0.006-0.046,0.015-0.091,0.018-0.137c0.039-0.512,0.062-1.025,0.119-1.535
		c0.093-0.838,0.281-1.659,0.533-2.463c0.911-2.908,2.577-5.304,4.945-7.21c2.317-1.865,4.97-2.914,7.93-3.186
		c0.586-0.054,1.174-0.069,1.763-0.049c0.598,0.02,1.192,0.067,1.784,0.154c1.101,0.161,2.168,0.447,3.204,0.853
		c1.736,0.68,3.285,1.658,4.652,2.926c1.202,1.115,2.211,2.382,2.996,3.824c0.882,1.622,1.445,3.347,1.677,5.18
		c0.093,0.738,0.132,1.479,0.117,2.223c-0.016,0.8-0.09,1.593-0.232,2.38c-0.234,1.296-0.637,2.537-1.205,3.725
		c-0.929,1.942-2.228,3.599-3.874,4.979c-2.64,2.213-5.688,3.369-9.134,3.472c-0.064,0.002-0.128,0.012-0.193,0.019
		c-0.149,0-0.298,0-0.446,0c-0.033-0.005-0.066-0.015-0.1-0.015c-0.825-0.014-1.642-0.097-2.453-0.249
		c-1.671-0.314-3.244-0.894-4.707-1.76c-2.358-1.396-4.217-3.288-5.548-5.684c-1.156-2.083-1.763-4.321-1.827-6.705
		C34.684,15.269,34.673,15.208,34.667,15.147z M53.982,22.423c0.331,0.004,0.62-0.057,0.899-0.161
		c0.625-0.234,1.122-0.647,1.557-1.141c0.181-0.205,0.335-0.43,0.442-0.683c0.139-0.331,0.219-0.671,0.12-1.028
		c-0.089-0.322-0.296-0.571-0.542-0.784c-0.476-0.412-0.995-0.766-1.529-1.099c-0.286-0.178-0.568-0.361-0.849-0.546
		c-0.328-0.216-0.68-0.335-1.079-0.336c-0.353-0.001-0.633,0.114-0.844,0.396c-0.13,0.173-0.26,0.347-0.384,0.524
		c-0.203,0.289-0.469,0.455-0.831,0.465c-0.275,0.008-0.52-0.084-0.767-0.187c-1.202-0.502-2.187-1.273-2.929-2.348
		c-0.268-0.388-0.479-0.807-0.686-1.23c-0.161-0.33-0.263-0.66-0.214-1.033c0.027-0.206,0.092-0.384,0.254-0.516
		c0.112-0.092,0.235-0.172,0.346-0.265c0.194-0.162,0.393-0.321,0.572-0.499c0.197-0.196,0.263-0.453,0.282-0.726
		c0.019-0.269-0.082-0.505-0.2-0.732c-0.442-0.848-1.003-1.613-1.646-2.318c-0.249-0.274-0.523-0.519-0.849-0.7
		c-0.275-0.152-0.564-0.191-0.867-0.106c-0.475,0.135-0.909,0.357-1.298,0.66c-0.633,0.492-0.943,1.148-0.945,1.945
		c-0.001,0.449,0.105,0.881,0.279,1.295c0.354,0.838,0.753,1.653,1.206,2.443c1.179,2.058,2.669,3.855,4.501,5.365
		c1.333,1.099,2.789,2,4.352,2.732c0.31,0.145,0.631,0.271,0.937,0.424C53.507,22.351,53.745,22.437,53.982,22.423z M49.829,7.114
		c-0.26-0.007-0.388,0.078-0.432,0.292c-0.012,0.06-0.01,0.123-0.008,0.185c0.003,0.16,0.058,0.242,0.212,0.287
		c0.097,0.028,0.201,0.031,0.3,0.051c0.148,0.03,0.293,0.074,0.442,0.097c0.761,0.122,1.503,0.312,2.213,0.617
		c0.844,0.363,1.577,0.876,2.144,1.609c0.436,0.564,0.745,1.194,0.976,1.865c0.195,0.567,0.323,1.152,0.425,1.742
		c0.018,0.106,0.031,0.213,0.033,0.32c0.003,0.175-0.018,0.351-0.006,0.525c0.014,0.203,0.079,0.266,0.281,0.289
		c0.155,0.018,0.324,0.016,0.416-0.136c0.073-0.121,0.1-0.263,0.08-0.411c-0.02-0.15-0.041-0.301-0.043-0.451
		c-0.005-0.535-0.072-1.06-0.203-1.578c-0.266-1.055-0.769-1.987-1.485-2.799C53.757,8.013,51.979,7.162,49.829,7.114z
		 M55.054,13.481c0.008-0.001,0.015-0.002,0.023-0.003c-0.036-0.29-0.056-0.584-0.112-0.87c-0.138-0.694-0.459-1.302-0.913-1.841
		c-0.941-1.115-2.138-1.748-3.592-1.87c-0.368-0.031-0.428,0.014-0.503,0.373c-0.001,0.006-0.004,0.012-0.005,0.018
		c-0.046,0.256,0.04,0.397,0.294,0.459c0.098,0.024,0.203,0.015,0.302,0.037c0.543,0.12,1.079,0.264,1.587,0.497
		c0.449,0.206,0.868,0.458,1.178,0.852c0.59,0.752,0.851,1.625,0.914,2.567c0.008,0.122,0.03,0.244,0.059,0.363
		c0.012,0.049,0.051,0.105,0.094,0.132c0.124,0.078,0.264,0.118,0.406,0.059c0.152-0.064,0.232-0.192,0.248-0.354
		C55.044,13.759,55.047,13.62,55.054,13.481z M53.318,13.031c-0.017-0.111-0.031-0.256-0.062-0.397
		c-0.161-0.725-1.089-1.8-2.082-1.836c-0.148-0.005-0.298-0.001-0.444,0.02c-0.157,0.023-0.251,0.142-0.276,0.32
		c-0.022,0.156,0.01,0.303,0.161,0.373c0.132,0.061,0.278,0.095,0.422,0.124c0.329,0.067,0.635,0.181,0.89,0.406
		c0.34,0.301,0.48,0.696,0.512,1.135c0.019,0.264,0.135,0.437,0.355,0.496c0.243,0.065,0.457-0.073,0.493-0.321
		C53.3,13.257,53.305,13.161,53.318,13.031z"/>
</g>
<path d="M101.582,14.997c0.187,7.555-5.799,15.03-14.905,15.003c-8.858-0.027-15.07-6.975-14.929-15.402
	C71.884,6.448,78.443-0.06,86.806,0C95.884,0.066,101.795,7.577,101.582,14.997z M88.195,11.861c0-0.427,0-0.72,0-1.013
	c-0.001-1.417-0.001-1.418,1.383-1.63c0.27-0.041,0.565-0.022,0.804-0.129c0.18-0.08,0.404-0.311,0.413-0.484
	c0.042-0.864,0.04-1.732-0.002-2.596c-0.007-0.154-0.274-0.417-0.428-0.422c-1.045-0.036-2.097-0.082-3.137-0.002
	c-1.736,0.135-2.921,1.079-3.247,2.549c-0.142,0.638-0.162,1.306-0.2,1.963c-0.031,0.534-0.006,1.071-0.006,1.62
	c-0.49,0.069-0.87,0.154-1.252,0.167c-0.437,0.015-0.592,0.192-0.576,0.63c0.029,0.797,0.024,1.595,0.002,2.392
	c-0.011,0.415,0.107,0.655,0.56,0.659c0.18,0.002,0.361,0.075,0.54,0.071c0.618-0.012,0.789,0.28,0.78,0.882
	c-0.035,2.415-0.018,4.831-0.021,7.246c0,0.423,0,0.846,0,1.369c1.275,0,2.431-0.011,3.586,0.005
	c0.561,0.008,0.722-0.23,0.717-0.782c-0.027-2.62-0.012-5.241-0.012-7.862c0-0.245,0-0.491,0-0.787
	c0.726-0.047,1.379-0.102,2.033-0.127c0.382-0.015,0.593-0.169,0.614-0.563c0.044-0.817,0.096-1.633,0.139-2.449
	c0.025-0.474-0.2-0.714-0.683-0.711C89.568,11.865,88.934,11.861,88.195,11.861z"/>
</svg>
